<svg xmlns="http://www.w3.org/2000/svg" xmlns:xlink="http://www.w3.org/1999/xlink" width="500" zoomAndPan="magnify" viewBox="0 0 375 374.999991" height="500" preserveAspectRatio="xMidYMid meet" version="1.0"><defs><g/><clipPath id="ba2cad130c"><path d="M 237 132 L 298 132 L 298 172 L 237 172 Z M 237 132 " clip-rule="nonzero"/></clipPath><clipPath id="25467fdf24"><path d="M 303.804688 139.753906 L 289.820312 180.945312 L 237.265625 163.097656 L 251.253906 121.910156 Z M 303.804688 139.753906 " clip-rule="nonzero"/></clipPath><clipPath id="02c1febadb"><path d="M 303.804688 139.753906 L 289.820312 180.945312 L 237.265625 163.097656 L 251.253906 121.910156 Z M 303.804688 139.753906 " clip-rule="nonzero"/></clipPath><clipPath id="d7365e4608"><path d="M 259 135 L 295 135 L 295 169 L 259 169 Z M 259 135 " clip-rule="nonzero"/></clipPath><clipPath id="036f71fb56"><path d="M 303.804688 139.753906 L 289.820312 180.945312 L 237.265625 163.097656 L 251.253906 121.910156 Z M 303.804688 139.753906 " clip-rule="nonzero"/></clipPath><clipPath id="ad1f04d35e"><path d="M 303.804688 139.753906 L 289.820312 180.945312 L 237.265625 163.097656 L 251.253906 121.910156 Z M 303.804688 139.753906 " clip-rule="nonzero"/></clipPath></defs><rect x="-37.5" width="450" fill="#ffffff" y="-37.499999" height="449.999989" fill-opacity="1"/><rect x="-37.5" width="450" fill="#000000" y="-37.499999" height="449.999989" fill-opacity="1"/><g fill="#ffffff" fill-opacity="1"><g transform="translate(44.964764, 190.833212)"><g><path d="M 43.042969 -6.441406 C 42.9375 -7.300781 41.324219 -16.421875 38.425781 -33.917969 L 42.078125 -36.066406 C 42.613281 -36.386719 42.9375 -36.816406 42.9375 -37.570312 C 42.9375 -38.210938 42.613281 -38.75 42.078125 -39.070312 L 37.03125 -41.96875 C 36.925781 -42.828125 35.316406 -52.273438 32.308594 -70.09375 C 31.988281 -71.808594 31.558594 -73.742188 30.804688 -74.492188 C 30.378906 -74.816406 29.519531 -75.03125 28.445312 -75.136719 L 18.675781 -75.136719 C 15.242188 -75.136719 14.382812 -74.492188 13.738281 -70.953125 C 12.773438 -65.046875 11.164062 -55.386719 8.800781 -42.078125 L 3.648438 -39.070312 C 3.003906 -38.75 2.683594 -38.210938 2.683594 -37.570312 C 2.683594 -36.816406 3.003906 -36.386719 3.648438 -36.066406 L 7.40625 -33.8125 C 7.40625 -33.703125 7.300781 -33.382812 7.300781 -33.0625 C 6.65625 -29.304688 5.152344 -20.179688 2.574219 -5.582031 C 2.148438 -2.46875 1.394531 -0.214844 4.402344 -0.105469 C 6.65625 0 9.445312 0 12.773438 -0.105469 C 14.277344 -0.105469 15.136719 -0.859375 15.457031 -2.46875 C 16.316406 -7.40625 16.851562 -10.304688 16.960938 -11.164062 C 17.605469 -16.636719 18.460938 -16.851562 24.042969 -16.851562 C 24.042969 -16.851562 24.367188 -16.851562 24.902344 -16.746094 C 28.660156 -16.636719 28.875 -11.484375 28.980469 -10.410156 C 29.195312 -9.554688 29.304688 -8.265625 29.519531 -6.65625 C 29.949219 -3.21875 30.054688 -1.609375 31.019531 -0.75 C 31.449219 -0.320312 32.09375 -0.105469 33.167969 0 C 34.027344 0 41.648438 0.320312 42.613281 -0.644531 C 43.472656 -1.394531 43.578125 -3.328125 43.042969 -6.441406 Z M 26.191406 -30.054688 C 25.976562 -28.660156 19.964844 -28.550781 19.964844 -30.164062 C 19.964844 -30.484375 19.964844 -31.019531 20.074219 -31.558594 C 20.394531 -36.066406 21.039062 -39.394531 21.789062 -41.433594 C 22.21875 -42.183594 23.398438 -42.613281 24.042969 -41.433594 C 24.367188 -40.789062 24.582031 -40.253906 24.6875 -39.824219 C 24.6875 -39.5 25.867188 -33.8125 26.082031 -31.878906 C 26.191406 -30.914062 26.191406 -30.269531 26.191406 -30.054688 Z M 26.191406 -30.054688 "/></g></g></g><g fill="#ffffff" fill-opacity="1"><g transform="translate(90.475833, 190.833212)"><g><path d="M 62.6875 -38.855469 L 58.394531 -41.324219 L 58.394531 -69.125 C 58.394531 -72.238281 58.820312 -74.816406 55.925781 -74.921875 C 52.597656 -75.03125 48.515625 -75.03125 43.6875 -74.921875 C 40.46875 -74.921875 40.789062 -72.667969 39.929688 -67.839844 C 39.5 -65.90625 39.285156 -64.402344 39.070312 -63.222656 C 38.320312 -59.789062 37.460938 -55.066406 36.386719 -49.375 L 33.8125 -35.421875 C 33.8125 -34.992188 33.703125 -34.777344 33.597656 -34.5625 C 32.847656 -32.847656 31.34375 -33.0625 30.914062 -34.347656 C 30.484375 -35.636719 30.164062 -36.601562 30.054688 -37.140625 L 24.472656 -65.371094 L 22.96875 -72.777344 C 22.648438 -74.171875 21.789062 -74.921875 20.609375 -74.921875 L 7.515625 -74.921875 C 4.832031 -74.816406 5.152344 -72.132812 5.152344 -69.019531 L 5.152344 -41.324219 L 0.859375 -38.855469 C 0.320312 -38.535156 0 -38 0 -37.355469 C 0 -36.601562 0.320312 -36.171875 0.859375 -35.851562 L 5.152344 -33.382812 L 5.152344 -6.011719 C 5.152344 -2.46875 4.832031 -0.214844 7.40625 0.105469 C 10.089844 0.320312 12.773438 0.320312 15.347656 0.105469 C 18.03125 -0.320312 17.820312 -2.898438 17.820312 -5.902344 L 17.820312 -24.152344 C 17.820312 -25.976562 18.03125 -27.265625 18.355469 -27.910156 C 18.460938 -28.335938 19.535156 -28.765625 19.964844 -27.910156 C 20.5 -26.726562 20.824219 -25.867188 21.039062 -25.226562 C 21.683594 -22.433594 22.648438 -18.570312 23.722656 -13.632812 C 24.152344 -12.128906 25.761719 -5.367188 26.40625 -2.574219 C 26.835938 -0.535156 27.480469 0 29.625 0.105469 C 32.632812 0.320312 35.957031 0.214844 36.816406 -0.535156 C 37.246094 -0.964844 37.675781 -1.824219 38 -3.003906 C 38.425781 -4.9375 39.070312 -7.621094 39.824219 -11.269531 L 42.078125 -22.433594 C 42.398438 -24.042969 42.828125 -25.117188 43.257812 -25.652344 C 43.472656 -25.867188 43.6875 -25.976562 44.007812 -25.976562 C 44.332031 -25.976562 44.546875 -25.867188 44.652344 -25.546875 C 45.296875 -23.9375 45.726562 -21.898438 45.726562 -19.320312 L 45.726562 -5.367188 C 45.726562 -2.683594 45.511719 -0.214844 47.660156 0 C 50.558594 0.320312 53.347656 0.320312 56.136719 0 C 58.605469 -0.320312 58.394531 -3.113281 58.394531 -6.117188 L 58.394531 -33.382812 L 62.6875 -35.851562 C 63.222656 -36.171875 63.546875 -36.601562 63.546875 -37.355469 C 63.546875 -38 63.222656 -38.535156 62.6875 -38.855469 Z M 62.6875 -38.855469 "/></g></g></g><g fill="#ffffff" fill-opacity="1"><g transform="translate(157.883732, 190.833212)"><g><path d="M 22.21875 -39.179688 L 17.925781 -41.648438 L 17.925781 -69.019531 C 17.925781 -72.667969 18.355469 -75.03125 15.457031 -75.351562 C 13.417969 -75.460938 6.976562 -75.675781 5.902344 -74.601562 C 5.472656 -74.171875 5.257812 -72.5625 5.257812 -69.984375 L 5.257812 -41.648438 L 0.964844 -39.179688 C 0.320312 -38.855469 0 -38.320312 0 -37.675781 C 0 -36.925781 0.320312 -36.496094 0.964844 -36.171875 L 5.257812 -33.703125 L 5.257812 -6.011719 C 5.257812 -3.003906 4.9375 -0.320312 7.835938 -0.105469 C 8.910156 0 10.410156 0 12.453125 0 C 17.710938 0 17.925781 -0.105469 17.925781 -5.472656 L 17.925781 -33.703125 L 22.21875 -36.171875 C 22.757812 -36.496094 23.078125 -36.925781 23.078125 -37.675781 C 23.078125 -38.320312 22.757812 -38.855469 22.21875 -39.179688 Z M 22.21875 -39.179688 "/></g></g></g><g fill="#ffffff" fill-opacity="1"><g transform="translate(185.898807, 190.833212)"><g><path d="M 37.570312 -68.910156 C 34.242188 -73.207031 30.054688 -75.351562 25.117188 -75.460938 L 21.253906 -75.460938 C 11.484375 -75.566406 5.046875 -66.335938 5.046875 -58.285156 C 5.152344 -55.28125 5.152344 -49.589844 5.152344 -41.324219 L 0.859375 -38.855469 C 0.320312 -38.535156 0 -38.105469 0 -37.355469 C 0 -36.710938 0.320312 -36.171875 0.859375 -35.851562 L 5.152344 -33.488281 L 5.152344 -16.960938 C 5.152344 -14.382812 5.367188 -12.453125 5.902344 -11.164062 C 11.484375 1.71875 26.082031 3.648438 34.5625 -3.328125 C 43.152344 -10.304688 41.109375 -14.921875 41.109375 -38.105469 C 41.109375 -40.894531 41.109375 -42.078125 40.253906 -42.9375 C 39.929688 -43.257812 39.285156 -43.578125 38.320312 -43.578125 C 37.355469 -43.6875 35.421875 -43.6875 32.523438 -43.6875 C 28.765625 -43.6875 26.40625 -43.6875 25.441406 -43.578125 C 23.722656 -43.472656 22.863281 -42.613281 22.757812 -41.003906 C 22.648438 -40.359375 22.648438 -38.105469 22.648438 -34.347656 C 22.648438 -32.417969 23.507812 -31.34375 25.226562 -31.128906 C 26.726562 -30.914062 27.695312 -30.164062 27.910156 -28.875 C 28.765625 -25.011719 28.765625 -21.039062 28.015625 -16.851562 C 27.910156 -16.746094 27.800781 -16.421875 27.695312 -16.101562 C 25.117188 -11.378906 19.320312 -11.59375 17.710938 -16.851562 C 17.066406 -18.675781 16.851562 -20.714844 16.851562 -22.96875 L 16.851562 -53.027344 C 16.851562 -58.179688 18.246094 -62.257812 22.003906 -62.792969 C 25.761719 -63.332031 28.335938 -59.789062 28.445312 -56.246094 C 28.765625 -48.730469 28.015625 -48.945312 30.914062 -48.730469 C 33.488281 -48.625 35.957031 -48.625 38.425781 -48.730469 C 41.648438 -48.945312 41.003906 -51.628906 41.003906 -54.742188 C 41.003906 -56.246094 41.003906 -57.320312 41.109375 -58.070312 C 41.324219 -61.933594 40.144531 -65.476562 37.570312 -68.910156 Z M 37.570312 -68.910156 "/></g></g></g><g fill="#ffffff" fill-opacity="1"><g transform="translate(232.268572, 190.833212)"><g><path d="M 46.585938 -39.070312 L 42.292969 -41.539062 L 42.292969 -55.816406 C 42.292969 -61.503906 40.894531 -67.625 36.386719 -71.808594 C 31.878906 -76.105469 26.511719 -77.285156 18.03125 -75.996094 C 16.636719 -75.78125 15.457031 -75.246094 14.167969 -74.277344 C 7.941406 -69.769531 4.9375 -64.402344 5.152344 -58.070312 C 5.152344 -55.066406 5.257812 -49.375 5.152344 -41.539062 L 0.859375 -39.070312 C 0.214844 -38.640625 0 -38.210938 0 -37.460938 C 0 -36.816406 0.214844 -36.386719 0.859375 -35.957031 L 5.152344 -33.488281 L 5.152344 -17.820312 C 5.152344 -14.382812 5.6875 -11.59375 6.976562 -9.230469 C 13.847656 3.648438 31.664062 4.507812 40.144531 -9.125 C 40.683594 -10.089844 41.109375 -10.949219 41.21875 -11.914062 C 42.078125 -16.316406 42.398438 -19.105469 42.398438 -20.289062 L 42.292969 -33.488281 L 46.585938 -35.957031 C 47.230469 -36.386719 47.445312 -36.816406 47.445312 -37.460938 C 47.445312 -38.210938 47.230469 -38.75 46.585938 -39.070312 Z M 28.230469 -15.886719 C 26.296875 -11.59375 20.074219 -11.699219 18.355469 -16.101562 C 17.925781 -16.960938 17.820312 -18.570312 17.820312 -20.714844 L 17.820312 -55.710938 C 17.820312 -57.425781 17.820312 -58.5 17.925781 -59.144531 C 18.675781 -64.617188 26.621094 -65.261719 28.335938 -60.003906 C 28.660156 -58.929688 28.875 -57.75 28.875 -56.246094 L 28.875 -19.964844 C 28.875 -18.246094 28.660156 -16.851562 28.230469 -15.886719 Z M 28.230469 -15.886719 "/></g></g></g><g clip-path="url(#ba2cad130c)"><g clip-path="url(#25467fdf24)"><g clip-path="url(#02c1febadb)"><path fill="#ffffff" d="M 265.941406 135.796875 C 267.171875 135.996094 268.589844 136.257812 269.839844 136.226562 C 271.101562 136.195312 272.371094 134.644531 273.441406 133.984375 C 275.191406 132.921875 277.171875 132.171875 279.214844 132.132812 C 281.253906 132.097656 283.363281 132.8125 284.753906 134.316406 C 285.664062 135.285156 286.226562 136.53125 287.175781 137.445312 C 288.746094 138.964844 291.125 139.398438 292.679688 140.925781 C 294.835938 143.035156 294.773438 146.46875 295.871094 149.273438 C 296.261719 150.277344 296.800781 151.210938 297.160156 152.238281 C 298.195312 155.222656 297.328125 158.773438 295.019531 160.933594 C 294.03125 161.859375 292.828125 162.53125 291.878906 163.519531 C 290.722656 164.710938 290.035156 166.289062 289.003906 167.59375 C 286.289062 171.042969 281.070312 172.222656 277.128906 170.285156 C 276.292969 169.871094 275.511719 169.339844 274.636719 169.019531 C 272.445312 168.242188 270.039062 168.941406 267.707031 168.882812 C 263.683594 168.789062 260.074219 166.453125 256.160156 165.527344 C 253.179688 164.816406 250.078125 164.738281 247.03125 164.605469 C 240.941406 164.347656 237.824219 162.234375 237.65625 162.015625 L 244.738281 141.160156 C 245.105469 140.855469 245.515625 140.601562 245.988281 140.449219 C 247.632812 139.894531 249.617188 140.542969 251.304688 140.585938 C 253.488281 140.640625 255.585938 141.148438 257.503906 140.035156 C 258.976562 139.179688 259.78125 138.585938 261.152344 137.554688 C 262.542969 136.554688 264.261719 135.527344 265.941406 135.796875 Z M 265.941406 135.796875 " fill-opacity="1" fill-rule="nonzero"/></g></g></g><g clip-path="url(#d7365e4608)"><g clip-path="url(#036f71fb56)"><g clip-path="url(#ad1f04d35e)"><path fill="#000000" d="M 281.589844 158.066406 C 280.78125 158.914062 279.785156 159.550781 278.792969 160.1875 C 276.113281 161.90625 273.425781 163.613281 270.742188 165.335938 C 269.933594 165.847656 269.089844 166.382812 268.136719 166.488281 C 266.730469 166.648438 262.796875 166.042969 261.707031 162.808594 C 261.34375 161.761719 261.261719 160.640625 261.328125 159.519531 C 261.496094 157.152344 261.703125 154.765625 261.324219 152.4375 C 260.9375 150.054688 259.941406 147.804688 259.722656 145.414062 C 259.503906 143.023438 260.347656 140.261719 262.550781 139.304688 C 264.25 138.5625 266.269531 139.128906 267.875 140.070312 C 269.480469 141.007812 270.84375 142.316406 272.472656 143.21875 C 274.511719 144.375 276.867188 144.847656 279.035156 145.726562 C 284.253906 147.832031 285.753906 153.71875 281.589844 158.066406 Z M 294.050781 153.847656 C 293.242188 152.925781 292.121094 152.265625 290.902344 152.105469 C 289.679688 151.945312 288.382812 152.316406 287.511719 153.179688 C 286.648438 154.046875 286.257812 155.410156 286.640625 156.570312 C 286.964844 157.550781 287.792969 158.328125 288.738281 158.71875 C 289.679688 159.121094 290.757812 159.183594 291.78125 159.070312 C 292.496094 158.976562 293.230469 158.796875 293.8125 158.378906 C 295.359375 157.269531 295.207031 155.15625 294.050781 153.847656 Z M 285.65625 162.367188 C 285.003906 161.925781 284.320312 161.519531 283.578125 161.324219 C 282.832031 161.128906 281.984375 161.167969 281.269531 161.597656 C 280.472656 162.066406 279.933594 162.9375 279.558594 163.84375 C 279.308594 164.441406 279.105469 165.101562 279.121094 165.746094 C 279.136719 166.921875 279.898438 167.921875 280.855469 168.386719 C 282.253906 169.070312 285.101562 168.910156 286.398438 167.613281 C 288.058594 165.941406 287.132812 163.34375 285.65625 162.367188 Z M 292.734375 143.945312 C 292.578125 143.347656 292.199219 142.859375 291.789062 142.464844 C 290.796875 141.523438 289.515625 140.960938 288.171875 140.863281 C 287.277344 140.804688 286.246094 141 285.585938 141.785156 C 284.957031 142.519531 284.792969 143.648438 284.96875 144.597656 C 285.226562 145.984375 286.136719 147.09375 287.28125 147.574219 C 288.429688 148.058594 289.804688 147.933594 291.015625 147.335938 C 292.132812 146.765625 293.082031 145.300781 292.734375 143.945312 Z M 281.355469 137.460938 C 280.972656 136.683594 280.117188 136.230469 279.289062 135.9375 C 278.351562 135.59375 277.335938 135.378906 276.34375 135.492188 C 275.355469 135.609375 274.363281 136.109375 273.832031 136.957031 C 273.246094 137.894531 273.273438 139.144531 273.816406 140.105469 C 274.359375 141.066406 275.359375 141.707031 276.429688 141.964844 C 277.507812 142.203125 278.644531 142.070312 279.679688 141.679688 C 280.144531 141.5 280.605469 141.273438 280.945312 140.914062 C 281.609375 140.191406 281.769531 138.320312 281.355469 137.460938 Z M 281.355469 137.460938 " fill-opacity="1" fill-rule="nonzero"/></g></g></g><g fill="#ffffff" fill-opacity="1"><g transform="translate(319.863411, 217.3731)"><g><path d="M -6.511719 -10.5 C -6.890625 -10.5 -7.105469 -10.28125 -7.132812 -9.902344 C -7.160156 -9.277344 -7.160156 -8.652344 -7.132812 -8.085938 C -7.132812 -7.515625 -6.945312 -7.378906 -6.347656 -7.324219 L -4.855469 -7.324219 C -3.851562 -7.296875 -3.066406 -6.59375 -3.121094 -5.75 C -3.175781 -4.910156 -3.933594 -4.503906 -4.613281 -4.421875 C -4.9375 -4.367188 -5.289062 -4.367188 -5.667969 -4.367188 C -7.785156 -4.339844 -10.390625 -4.339844 -13.535156 -4.367188 C -14.214844 -4.367188 -14.839844 -4.3125 -15.433594 -4.855469 C -15.734375 -5.128906 -15.898438 -5.453125 -15.898438 -5.832031 C -15.898438 -6.59375 -15.191406 -7.269531 -14.160156 -7.324219 C -12.453125 -7.351562 -12.34375 -7.214844 -12.289062 -7.976562 C -12.261719 -8.546875 -12.261719 -9.085938 -12.289062 -9.65625 C -12.289062 -10.308594 -12.453125 -10.5 -13.101562 -10.527344 C -13.917969 -10.550781 -16.03125 -10.6875 -17.007812 -9.875 C -18.066406 -8.980469 -18.691406 -8.191406 -18.933594 -7.542969 C -19.015625 -7.324219 -19.042969 -7.054688 -19.070312 -6.808594 C -19.070312 -6.457031 -19.097656 -5.886719 -19.070312 -5.101562 C -19.070312 -4.828125 -19.015625 -4.53125 -18.878906 -4.175781 C -18.230469 -2.414062 -16.4375 -1.273438 -14.785156 -1.328125 C -14.050781 -1.382812 -12.695312 -1.382812 -10.527344 -1.355469 L -9.902344 -0.269531 C -9.792969 -0.136719 -9.683594 -0.0546875 -9.496094 -0.0546875 C -9.332031 -0.0546875 -9.222656 -0.136719 -9.113281 -0.269531 L -8.492188 -1.355469 L -4.042969 -1.355469 C -3.148438 -1.355469 -2.441406 -1.519531 -1.925781 -1.925781 C 1.871094 -4.71875 0.351562 -9.710938 -3.445312 -10.445312 C -3.988281 -10.550781 -4.992188 -10.578125 -6.511719 -10.5 Z M -6.511719 -10.5 "/></g></g></g><g fill="#ffffff" fill-opacity="1"><g transform="translate(319.863411, 196.1085)"><g><path d="M -1.628906 -10.878906 C -1.84375 -10.851562 -4.152344 -10.445312 -8.574219 -9.710938 L -9.113281 -10.632812 C -9.195312 -10.769531 -9.304688 -10.851562 -9.496094 -10.851562 C -9.65625 -10.851562 -9.792969 -10.769531 -9.875 -10.632812 L -10.605469 -9.359375 C -10.824219 -9.332031 -13.210938 -8.925781 -17.714844 -8.164062 C -18.148438 -8.085938 -18.636719 -7.976562 -18.828125 -7.785156 C -18.90625 -7.675781 -18.960938 -7.460938 -18.988281 -7.1875 L -18.988281 -4.71875 C -18.988281 -3.851562 -18.828125 -3.636719 -17.929688 -3.472656 C -16.4375 -3.226562 -13.996094 -2.820312 -10.632812 -2.222656 L -9.875 -0.921875 C -9.792969 -0.757812 -9.65625 -0.679688 -9.496094 -0.679688 C -9.304688 -0.679688 -9.195312 -0.757812 -9.113281 -0.921875 L -8.546875 -1.871094 C -8.519531 -1.871094 -8.4375 -1.84375 -8.355469 -1.84375 C -7.40625 -1.683594 -5.101562 -1.300781 -1.410156 -0.652344 C -0.625 -0.542969 -0.0546875 -0.351562 -0.0273438 -1.113281 C 0 -1.683594 0 -2.386719 -0.0273438 -3.226562 C -0.0273438 -3.609375 -0.21875 -3.824219 -0.625 -3.90625 C -1.871094 -4.125 -2.605469 -4.257812 -2.820312 -4.285156 C -4.203125 -4.449219 -4.257812 -4.664062 -4.257812 -6.078125 C -4.257812 -6.078125 -4.257812 -6.15625 -4.230469 -6.292969 C -4.203125 -7.242188 -2.902344 -7.296875 -2.632812 -7.324219 C -2.414062 -7.378906 -2.089844 -7.40625 -1.683594 -7.460938 C -0.8125 -7.570312 -0.40625 -7.59375 -0.191406 -7.839844 C -0.0820312 -7.949219 -0.0273438 -8.109375 0 -8.382812 C 0 -8.597656 0.0820312 -10.527344 -0.164062 -10.769531 C -0.351562 -10.988281 -0.839844 -11.015625 -1.628906 -10.878906 Z M -7.59375 -6.617188 C -7.242188 -6.566406 -7.214844 -5.046875 -7.621094 -5.046875 C -7.703125 -5.046875 -7.839844 -5.046875 -7.976562 -5.074219 C -9.113281 -5.152344 -9.957031 -5.316406 -10.472656 -5.507812 C -10.660156 -5.617188 -10.769531 -5.914062 -10.472656 -6.078125 C -10.308594 -6.15625 -10.171875 -6.210938 -10.0625 -6.238281 C -9.984375 -6.238281 -8.546875 -6.539062 -8.058594 -6.59375 C -7.8125 -6.617188 -7.648438 -6.617188 -7.59375 -6.617188 Z M -7.59375 -6.617188 "/></g></g></g><g fill="#ffffff" fill-opacity="1"><g transform="translate(319.863411, 175.14219)"><g><path d="M -9.929688 -12.667969 L -10.550781 -11.609375 L -17.6875 -11.609375 C -18.3125 -11.609375 -18.988281 -11.664062 -19.015625 -11.09375 C -19.070312 -10.6875 -19.070312 -10.253906 -19.070312 -9.792969 C -19.070312 -8.464844 -19.015625 -8.410156 -17.6875 -8.410156 C -17.796875 -8.410156 -15.84375 -8.410156 -11.800781 -8.382812 C -10.90625 -8.382812 -10.824219 -8.410156 -10.308594 -8.246094 C -9.984375 -8.191406 -9.929688 -7.785156 -10.253906 -7.648438 C -10.363281 -7.59375 -10.5 -7.542969 -10.660156 -7.488281 C -11.636719 -7.214844 -14.972656 -6.210938 -16.414062 -5.777344 C -16.65625 -5.722656 -17.007812 -5.617188 -17.441406 -5.480469 C -17.929688 -5.316406 -18.285156 -5.207031 -18.472656 -5.152344 C -18.855469 -5.046875 -19.042969 -4.800781 -19.042969 -4.476562 L -19.042969 -1.898438 C -19.015625 -1.273438 -18.367188 -1.328125 -17.523438 -1.328125 L -10.550781 -1.328125 L -9.929688 -0.246094 C -9.820312 -0.109375 -9.710938 -0.0273438 -9.523438 -0.0273438 C -9.359375 -0.0273438 -9.25 -0.109375 -9.140625 -0.246094 L -8.519531 -1.328125 L -1.65625 -1.328125 C -0.785156 -1.328125 -0.109375 -1.222656 0 -2.0625 L 0 -3.011719 C 0 -4.53125 0 -4.558594 -1.464844 -4.558594 L -7.351562 -4.558594 C -7.921875 -4.558594 -8.300781 -4.585938 -8.519531 -4.664062 C -8.84375 -4.800781 -8.925781 -5.152344 -8.597656 -5.316406 L -7.703125 -5.640625 C -7.839844 -5.589844 -5.777344 -6.265625 -1.464844 -7.648438 L -1.085938 -7.785156 C -0.894531 -7.867188 -0.757812 -7.894531 -0.652344 -7.921875 C 0.191406 -8.191406 0 -9.441406 0 -10.089844 C 0 -11.527344 -0.0546875 -11.609375 -1.492188 -11.609375 L -8.519531 -11.609375 L -9.140625 -12.667969 C -9.25 -12.832031 -9.359375 -12.914062 -9.523438 -12.914062 C -9.710938 -12.914062 -9.820312 -12.832031 -9.929688 -12.667969 Z M -9.929688 -12.667969 "/></g></g></g><g fill="#ffffff" fill-opacity="1"><g transform="translate(319.863411, 151.762444)"><g><path d="M -9.902344 -5.617188 L -10.527344 -4.53125 L -17.441406 -4.53125 C -18.367188 -4.53125 -18.960938 -4.640625 -19.042969 -3.90625 C -19.070312 -3.390625 -19.125 -1.761719 -18.855469 -1.492188 C -18.746094 -1.382812 -18.339844 -1.328125 -17.6875 -1.328125 L -10.527344 -1.328125 L -9.902344 -0.246094 C -9.820312 -0.0820312 -9.683594 0 -9.523438 0 C -9.332031 0 -9.222656 -0.0820312 -9.140625 -0.246094 L -8.519531 -1.328125 L -1.519531 -1.328125 C -0.757812 -1.328125 -0.0820312 -1.246094 -0.0273438 -1.980469 C 0 -2.25 0 -2.632812 0 -3.148438 C 0 -4.476562 -0.0273438 -4.53125 -1.382812 -4.53125 L -8.519531 -4.53125 L -9.140625 -5.617188 C -9.222656 -5.75 -9.332031 -5.832031 -9.523438 -5.832031 C -9.683594 -5.832031 -9.820312 -5.75 -9.902344 -5.617188 Z M -9.902344 -5.617188 "/></g></g></g><g fill="#ffffff" fill-opacity="1"><g transform="translate(319.863411, 135.216222)"><g><path d="M -9.929688 -12.667969 L -10.550781 -11.609375 L -17.6875 -11.609375 C -18.3125 -11.609375 -18.988281 -11.664062 -19.015625 -11.09375 C -19.070312 -10.6875 -19.070312 -10.253906 -19.070312 -9.792969 C -19.070312 -8.464844 -19.015625 -8.410156 -17.6875 -8.410156 C -17.796875 -8.410156 -15.84375 -8.410156 -11.800781 -8.382812 C -10.90625 -8.382812 -10.824219 -8.410156 -10.308594 -8.246094 C -9.984375 -8.191406 -9.929688 -7.785156 -10.253906 -7.648438 C -10.363281 -7.59375 -10.5 -7.542969 -10.660156 -7.488281 C -11.636719 -7.214844 -14.972656 -6.210938 -16.414062 -5.777344 C -16.65625 -5.722656 -17.007812 -5.617188 -17.441406 -5.480469 C -17.929688 -5.316406 -18.285156 -5.207031 -18.472656 -5.152344 C -18.855469 -5.046875 -19.042969 -4.800781 -19.042969 -4.476562 L -19.042969 -1.898438 C -19.015625 -1.273438 -18.367188 -1.328125 -17.523438 -1.328125 L -10.550781 -1.328125 L -9.929688 -0.246094 C -9.820312 -0.109375 -9.710938 -0.0273438 -9.523438 -0.0273438 C -9.359375 -0.0273438 -9.25 -0.109375 -9.140625 -0.246094 L -8.519531 -1.328125 L -1.65625 -1.328125 C -0.785156 -1.328125 -0.109375 -1.222656 0 -2.0625 L 0 -3.011719 C 0 -4.53125 0 -4.558594 -1.464844 -4.558594 L -7.351562 -4.558594 C -7.921875 -4.558594 -8.300781 -4.585938 -8.519531 -4.664062 C -8.84375 -4.800781 -8.925781 -5.152344 -8.597656 -5.316406 L -7.703125 -5.640625 C -7.839844 -5.589844 -5.777344 -6.265625 -1.464844 -7.648438 L -1.085938 -7.785156 C -0.894531 -7.867188 -0.757812 -7.894531 -0.652344 -7.921875 C 0.191406 -8.191406 0 -9.441406 0 -10.089844 C 0 -11.527344 -0.0546875 -11.609375 -1.492188 -11.609375 L -8.519531 -11.609375 L -9.140625 -12.667969 C -9.25 -12.832031 -9.359375 -12.914062 -9.523438 -12.914062 C -9.710938 -12.914062 -9.820312 -12.832031 -9.929688 -12.667969 Z M -9.929688 -12.667969 "/></g></g></g><g fill="#ffffff" fill-opacity="1"><g transform="translate(319.863411, 111.836482)"><g><path d="M -9.875 -11.773438 L -10.5 -10.6875 L -14.105469 -10.6875 C -15.542969 -10.6875 -17.089844 -10.335938 -18.148438 -9.195312 C -19.234375 -8.058594 -19.53125 -6.699219 -19.207031 -4.558594 C -19.152344 -4.203125 -19.015625 -3.90625 -18.773438 -3.582031 C -17.632812 -2.007812 -16.277344 -1.246094 -14.675781 -1.300781 C -13.917969 -1.300781 -12.480469 -1.328125 -10.5 -1.300781 L -9.875 -0.21875 C -9.765625 -0.0546875 -9.65625 0 -9.46875 0 C -9.304688 0 -9.195312 -0.0546875 -9.085938 -0.21875 L -8.464844 -1.300781 L -4.503906 -1.300781 C -3.636719 -1.300781 -2.929688 -1.4375 -2.332031 -1.761719 C 0.921875 -3.5 1.140625 -8.003906 -2.304688 -10.144531 C -2.550781 -10.28125 -2.765625 -10.390625 -3.011719 -10.417969 C -4.125 -10.632812 -4.828125 -10.714844 -5.128906 -10.714844 L -8.464844 -10.6875 L -9.085938 -11.773438 C -9.195312 -11.9375 -9.304688 -11.992188 -9.46875 -11.992188 C -9.65625 -11.992188 -9.792969 -11.9375 -9.875 -11.773438 Z M -4.015625 -7.132812 C -2.929688 -6.644531 -2.957031 -5.074219 -4.070312 -4.640625 C -4.285156 -4.53125 -4.691406 -4.503906 -5.234375 -4.503906 L -14.078125 -4.503906 C -14.511719 -4.503906 -14.785156 -4.503906 -14.945312 -4.53125 C -16.332031 -4.71875 -16.492188 -6.726562 -15.164062 -7.160156 C -14.894531 -7.242188 -14.59375 -7.296875 -14.214844 -7.296875 L -5.046875 -7.296875 C -4.613281 -7.296875 -4.257812 -7.242188 -4.015625 -7.132812 Z M -4.015625 -7.132812 "/></g></g></g></svg>